<svg aria-hidden="true" style="width:0;height:0;position:absolute;overflow:hidden" xmlns="http://www.w3.org/2000/svg"><defs><symbol id="star" viewBox="0 0 34 32"><path fill="#edd501" style="fill:var(--color1,#edd501)" d="M15.24 1.561c.505-1.551 2.7-1.551 3.203 0l2.558 7.872c.227.68.857 1.162 1.6 1.162h8.278c1.632 0 2.309 2.088.99 3.048l-6.696 4.864a1.683 1.683 0 0 0-.608 1.895l-.003-.012 2.557 7.872c.505 1.553-1.272 2.843-2.592 1.883l-6.695-4.864a1.68 1.68 0 0 0-1.985.003l.005-.003-6.696 4.864c-1.319.96-3.096-.332-2.59-1.883l2.557-7.872a1.682 1.682 0 0 0-.607-1.88l-.005-.003-6.696-4.864c-1.319-.96-.64-3.048.99-3.048h8.276c.744 0 1.374-.482 1.598-1.15l.003-.012 2.56-7.872z"/></symbol><symbol id="star-empty" viewBox="0 0 34 32"><path fill="none" stroke="#edd501" style="stroke:var(--color1,#edd501)" stroke-width="1.684" d="M15.901 3.05a.844.844 0 0 1 1.6-.006l.002.006 2.509 7.725a2.532 2.532 0 0 0 2.403 1.747h8.125a.842.842 0 0 1 .497 1.521l-.002.002-6.572 4.776a2.527 2.527 0 0 0-.912 2.842l-.005-.018 2.509 7.725a.842.842 0 0 1-1.3.94l.002.002-6.572-4.775c-.411-.301-.927-.482-1.485-.482s-1.074.181-1.492.487l.007-.005-6.572 4.775a.842.842 0 0 1-1.295-.947l-.002.006 2.509-7.725a2.524 2.524 0 0 0-.909-2.82l-.007-.005-6.572-4.776a.841.841 0 0 1 .495-1.522h8.123a2.527 2.527 0 0 0 2.398-1.729l.005-.018 2.509-7.725z"/></symbol><symbol id="marker" viewBox="0 0 32 32"><path fill="#fff" style="fill:var(--color2,#fff);stroke:var(--color3,#f3848c)" stroke="#f3848c" stroke-width="1.333" d="M31.333 16c0 8.468-6.865 15.333-15.333 15.333S.667 24.468.667 16 7.532.667 16 .667 31.333 7.532 31.333 16z"/><path fill="#fff" style="fill:var(--color2,#fff)" d="M29.333 16c0 7.364-5.97 13.333-13.333 13.333S2.667 23.363 2.667 16C2.667 8.636 8.637 2.667 16 2.667S29.333 8.637 29.333 16z"/><path fill="none" stroke="#f3848c" style="stroke:var(--color3,#f3848c)" stroke-linecap="round" stroke-width=".667" d="M29 16c0 7.18-5.82 13-13 13S3 23.18 3 16 8.82 3 16 3s13 5.82 13 13z"/><path style="fill:var(--color4,#000)" d="M9.333 10.953a2.857 2.857 0 0 0 2.38 2.813v4.329c0 .263.213.476.476.476h7.621a.476.476 0 0 0 .476-.476v-4.329a2.864 2.864 0 0 0 2.38-2.813 2.86 2.86 0 0 0-2.857-2.857h-1.077A3.33 3.33 0 0 0 16 6.667a3.333 3.333 0 0 0-2.732 1.429h-1.077a2.86 2.86 0 0 0-2.857 2.857zm3.334 6.191h6.667v.475h-6.667v-.475zm-.476-8.096h.616a3.3 3.3 0 0 0-.14.952.476.476 0 1 0 .952 0c0-1.313 1.068-2.381 2.381-2.381S18.381 8.687 18.381 10a.476.476 0 1 0 .952 0c0-.331-.049-.649-.14-.952h.616a1.907 1.907 0 0 1 1.347 3.25 1.903 1.903 0 0 1-1.342.56h-.006a.475.475 0 0 0-.475.475v2.86h-6.667v-2.86a.476.476 0 0 0-.476-.476h-.004a1.908 1.908 0 0 1-.003-3.808h.005zm9.046 11.429H10.762a.476.476 0 1 0 0 .952h10.475a.476.476 0 1 0 0-.952zm0 1.428H10.762a.477.477 0 1 0 0 .954h10.475a.477.477 0 1 0 0-.954zm-2.381 1.442h-5.712a.476.476 0 1 0 0 .952h5.712a.476.476 0 1 0 0-.952z"/></symbol><symbol id="menu-btn" viewBox="0 0 60 32"><path d="M2 .006h56a2 2 0 1 1 0 4H2a2 2 0 1 1 0-4zM2 14.006h56a2 2 0 1 1 0 4H2a2 2 0 1 1 0-4zM2 28.006h56a2 2 0 1 1 0 4H2a2 2 0 1 1 0-4z"/></symbol><symbol id="instagram" viewBox="0 0 32 32"><path d="M16.322 32.011h-.32l-.461.001c-2.329 0-4.642-.072-6.936-.212l.315.015c-2.067-.126-3.953-.84-5.456-2.065-1.45-1.182-2.441-2.781-2.943-4.752-.44-1.717-.46-3.401-.484-5.028-.016-1.17-.032-2.555-.036-3.961.004-1.415.02-2.801.036-3.969.022-1.629.046-3.311.484-5.028.5-1.971 1.493-3.569 2.941-4.752C4.969 1.036 6.855.319 8.924.195c2.253-.138 4.572-.2 7.087-.196l.444-.001c2.336 0 4.655.071 6.955.212l-.316-.015c2.067.124 3.953.84 5.456 2.065 1.451 1.182 2.441 2.781 2.945 4.752.436 1.717.46 3.401.48 5.028.018 1.17.034 2.555.038 3.961v.006a367.83 367.83 0 0 1-.036 3.961c-.022 1.631-.046 3.313-.482 5.03-.504 1.971-1.495 3.569-2.945 4.752-1.503 1.224-3.389 1.941-5.456 2.065-1.969.125-4.27.196-6.587.196h-.193.01zm-.32-2.501.481.001c2.272 0 4.528-.069 6.765-.206l-.307.015c1.561-.096 2.917-.602 4.027-1.509 1.026-.836 1.735-1.991 2.101-3.431.364-1.428.386-2.961.406-4.446.016-1.16.032-2.535.036-3.929-.004-1.395-.02-2.769-.036-3.931-.02-1.481-.04-3.015-.406-4.442-.368-1.441-1.074-2.597-2.101-3.433-1.11-.906-2.465-1.413-4.027-1.509a105.294 105.294 0 0 0-6.46-.191l-.5.001h.026l-.485-.001c-2.27 0-4.523.069-6.758.206l.307-.015c-1.561.096-2.917.602-4.027 1.509-1.026.836-1.735 1.991-2.101 3.431-.364 1.429-.386 2.961-.406 4.444a364.41 364.41 0 0 0-.036 3.933c.004 1.39.02 2.767.036 3.927.02 1.485.04 3.017.406 4.446.366 1.441 1.074 2.595 2.101 3.431 1.11.906 2.465 1.413 4.027 1.509 2.201.134 4.47.196 6.93.19zm-.06-5.69a7.823 7.823 0 0 1-7.813-7.814 7.824 7.824 0 0 1 7.816-7.815 7.823 7.823 0 0 1 7.813 7.814 7.824 7.824 0 0 1-7.814 7.815zm0-13.128a5.323 5.323 0 0 0-5.312 5.313 5.323 5.323 0 0 0 5.316 5.314 5.323 5.323 0 0 0 5.312-5.313 5.323 5.323 0 0 0-5.313-5.314zm8.693-5.002-.061-.001a1.877 1.877 0 0 0 0 3.754l.064-.001h-.003a1.877 1.877 0 0 0 .003-3.752h-.003z"/></symbol><symbol id="twitter" viewBox="0 0 32 32"><path d="M32.011 5.442a12.25 12.25 0 0 1-3.714 1.152l-.068.008c1.36-.908 2.399-2.337 2.887-4.055a12.139 12.139 0 0 1-4.079 1.759l-.083.016c-1.204-1.433-2.921-2.321-4.794-2.321-3.633 0-6.558 3.297-6.558 7.339 0 .58.044 1.14.152 1.673-5.456-.298-10.284-3.221-13.527-7.675a7.958 7.958 0 0 0-.898 3.699v.011-.001c0 2.541 1.17 4.792 2.915 6.096a5.953 5.953 0 0 1-2.99-.919l.024.014v.08c0 3.567 2.275 6.528 5.258 7.211a5.941 5.941 0 0 1-1.721.24c-.42 0-.844-.026-1.242-.124.85 2.905 3.263 5.042 6.132 5.11-2.233 1.953-5.068 3.129-8.137 3.129a11.3 11.3 0 0 1-1.571-.1c2.907 2.095 6.352 3.291 10.068 3.291 12.076 0 18.679-11.184 18.679-20.875 0-.324-.01-.638-.024-.948a14.165 14.165 0 0 0 3.254-3.745l.036-.064z"/></symbol><symbol id="facebook" viewBox="0 0 32 32"><path d="M22.52.006 18.903 0c-4.065 0-6.692 3.093-6.692 7.879v3.631H8.572c-.314 0-.568.294-.568.654v5.262c0 .36.254.652.568.652h3.639v13.281c0 .36.254.652.568.652h4.748c.314 0 .568-.292.568-.652V18.078h4.253c.314 0 .568-.292.568-.652l.002-5.262c0-.174-.06-.34-.166-.462a.531.531 0 0 0-.402-.192h-4.256V8.431c0-1.481.308-2.231 1.987-2.231h2.439c.314 0 .568-.294.568-.654V.66c0-.36-.254-.652-.568-.654z"/></symbol></defs></svg>