<svg aria-hidden="true" style="position: absolute; width: 0; height: 0; overflow: hidden;" version="1.1" xmlns="http://www.w3.org/2000/svg" xmlns:xlink="http://www.w3.org/1999/xlink">
<defs>
<symbol id="star" viewBox="0 0 34 32">
    <path fill="#edd501" style="fill: var(--color1, #edd501)" d="M15.24 1.561c0.505-1.551 2.7-1.551 3.203 0l2.558 7.872c0.227 0.68 0.857 1.162 1.6 1.162h8.278c1.632 0 2.309 2.088 0.99 3.048l-6.696 4.864c-0.423 0.31-0.694 0.804-0.694 1.362 0 0.186 0.030 0.365 0.086 0.533l-0.003-0.012 2.557 7.872c0.505 1.553-1.272 2.843-2.592 1.883l-6.695-4.864c-0.274-0.201-0.618-0.322-0.99-0.322s-0.716 0.121-0.995 0.325l0.005-0.003-6.696 4.864c-1.319 0.96-3.096-0.332-2.59-1.883l2.557-7.872c0.052-0.155 0.082-0.335 0.082-0.521 0-0.558-0.271-1.052-0.689-1.359l-0.005-0.003-6.696-4.864c-1.319-0.96-0.64-3.048 0.99-3.048h8.276c0 0 0 0 0 0 0.744 0 1.374-0.482 1.598-1.15l0.003-0.012 2.56-7.872z"></path>
</symbol>
<symbol id="star-empty" viewBox="0 0 34 32">
    <path fill="none" stroke="#edd501" style="stroke: var(--color1, #edd501)" stroke-linejoin="miter" stroke-linecap="butt" stroke-miterlimit="4" stroke-width="1.6842" d="M15.901 3.050c0.113-0.341 0.429-0.582 0.801-0.582s0.688 0.241 0.799 0.576l0.002 0.006 2.509 7.725c0.339 1.022 1.286 1.747 2.403 1.747 0 0 0 0 0 0h8.125c0.465 0.001 0.841 0.377 0.841 0.842 0 0.279-0.135 0.525-0.344 0.679l-0.002 0.002-6.572 4.776c-0.634 0.465-1.041 1.207-1.041 2.044 0 0.279 0.045 0.547 0.129 0.798l-0.005-0.018 2.509 7.725c0.026 0.078 0.041 0.168 0.041 0.261 0 0.465-0.377 0.842-0.842 0.842-0.187 0-0.359-0.061-0.499-0.163l0.002 0.002-6.572-4.775c-0.411-0.301-0.927-0.482-1.485-0.482s-1.074 0.181-1.492 0.487l0.007-0.005-6.572 4.775c-0.137 0.101-0.31 0.162-0.496 0.162-0.465 0-0.842-0.377-0.842-0.842 0-0.093 0.015-0.183 0.043-0.267l-0.002 0.006 2.509-7.725c0.079-0.233 0.124-0.502 0.124-0.782 0-0.837-0.407-1.578-1.033-2.038l-0.007-0.005-6.572-4.776c-0.211-0.155-0.346-0.402-0.346-0.68 0-0.465 0.376-0.842 0.841-0.842h8.123c0 0 0 0 0 0 1.117 0 2.064-0.724 2.398-1.729l0.005-0.018 2.509-7.725z"></path>
</symbol>
<symbol id="marker" viewBox="0 0 32 32">
    <path fill="#fff" style="fill: var(--color2, #fff); stroke: var(--color3, #f3848c)" stroke="#f3848c" stroke-linejoin="miter" stroke-linecap="butt" stroke-miterlimit="4" stroke-width="1.3333" d="M31.333 16c0 8.468-6.865 15.333-15.333 15.333s-15.333-6.865-15.333-15.333c0-8.468 6.865-15.333 15.333-15.333s15.333 6.865 15.333 15.333z"></path>
    <path fill="#fff" style="fill: var(--color2, #fff)" d="M29.333 16c0 7.364-5.97 13.333-13.333 13.333s-13.333-5.97-13.333-13.333c0-7.364 5.97-13.333 13.333-13.333s13.333 5.97 13.333 13.333z"></path>
    <path fill="none" stroke="#f3848c" style="stroke: var(--color3, #f3848c)" stroke-linejoin="miter" stroke-linecap="round" stroke-miterlimit="4" stroke-width="0.6667" d="M29 16c0 7.18-5.82 13-13 13s-13-5.82-13-13c0-7.18 5.82-13 13-13s13 5.82 13 13z"></path>
    <path fill="#000" style="fill: var(--color4, #000)" d="M9.333 10.953c0 1.413 1.032 2.587 2.38 2.813v4.329c0 0 0 0 0 0 0 0.263 0.213 0.476 0.476 0.476 0 0 0.001 0 0.001 0h7.62c0.263 0 0.476-0.213 0.476-0.476v0-4.329c1.358-0.237 2.377-1.406 2.38-2.813v-0c-0.002-1.577-1.28-2.856-2.857-2.857h-1.077c-0.609-0.868-1.605-1.428-2.732-1.429h-0c-1.129 0-2.129 0.567-2.732 1.429h-1.077c-1.577 0.002-2.856 1.28-2.857 2.857v0zM12.667 17.144h6.667v0.475h-6.667v-0.475zM12.191 9.048h0.616c-0.093 0.309-0.14 0.629-0.14 0.952 0 0.263 0.213 0.476 0.476 0.476s0.476-0.213 0.476-0.476v0c0-1.313 1.068-2.381 2.381-2.381s2.381 1.068 2.381 2.381c0 0.263 0.213 0.476 0.476 0.476s0.476-0.213 0.476-0.476v0c0-0.331-0.049-0.649-0.14-0.952h0.616c1.050 0.004 1.9 0.856 1.9 1.907 0 0.524-0.211 0.998-0.553 1.343l0-0c-0.344 0.344-0.818 0.558-1.342 0.56h-0.003c-0.001 0-0.002 0-0.003 0-0.262 0-0.475 0.213-0.475 0.475 0 0 0 0.001 0 0.001v-0 2.859h-6.667v-2.859c0-0 0-0.001 0-0.001 0-0.263-0.213-0.476-0.476-0.476 0 0 0 0 0 0h-0.004c-1.008-0.056-1.805-0.887-1.805-1.904s0.798-1.85 1.802-1.904l0.005-0zM21.237 20.477h-10.475c-0.263 0-0.476 0.213-0.476 0.476s0.213 0.476 0.476 0.476h10.475c0.263 0 0.476-0.213 0.476-0.476s-0.213-0.476-0.476-0.476v0zM21.237 21.905h-10.475c-0.263 0-0.477 0.213-0.477 0.477s0.213 0.477 0.477 0.477v0h10.475c0.263 0 0.477-0.213 0.477-0.477s-0.213-0.477-0.477-0.477v0zM18.856 23.347h-5.712c-0.263 0-0.476 0.213-0.476 0.476s0.213 0.476 0.476 0.476h5.712c0.263 0 0.476-0.213 0.476-0.476s-0.213-0.476-0.476-0.476v0z"></path>
</symbol>
<symbol id="menu-btn" viewBox="0 0 60 32">
    <path d="M2 0.006h56c1.105 0 2 0.895 2 2s-0.895 2-2 2h-56c-1.105 0-2-0.895-2-2s0.895-2 2-2z"></path>
    <path d="M2 14.006h56c1.105 0 2 0.895 2 2s-0.895 2-2 2h-56c-1.105 0-2-0.895-2-2s0.895-2 2-2z"></path>
    <path d="M2 28.006h56c1.105 0 2 0.895 2 2s-0.895 2-2 2h-56c-1.105 0-2-0.895-2-2s0.895-2 2-2z"></path>
</symbol>
<symbol id="instagram" viewBox="0 0 32 32">
    <path d="M16.322 32.011h-0.32c-0.137 0.001-0.299 0.001-0.461 0.001-2.329 0-4.642-0.072-6.936-0.212l0.315 0.015c-2.067-0.126-3.953-0.84-5.456-2.065-1.45-1.182-2.441-2.781-2.943-4.752-0.44-1.717-0.46-3.401-0.484-5.028-0.016-1.17-0.032-2.555-0.036-3.961 0.004-1.415 0.020-2.801 0.036-3.969 0.022-1.629 0.046-3.311 0.484-5.028 0.5-1.971 1.493-3.569 2.941-4.752 1.507-1.224 3.393-1.941 5.462-2.065 2.253-0.138 4.572-0.2 7.087-0.196 0.132-0.001 0.288-0.001 0.444-0.001 2.336 0 4.655 0.071 6.955 0.212l-0.316-0.015c2.067 0.124 3.953 0.84 5.456 2.065 1.451 1.182 2.441 2.781 2.945 4.752 0.436 1.717 0.46 3.401 0.48 5.028 0.018 1.17 0.034 2.555 0.038 3.961v0.006c-0.004 1.409-0.020 2.793-0.036 3.961-0.022 1.631-0.046 3.313-0.482 5.030-0.504 1.971-1.495 3.569-2.945 4.752-1.503 1.224-3.389 1.941-5.456 2.065-1.969 0.125-4.27 0.196-6.587 0.196-0.064 0-0.129-0-0.193-0h0.010zM16.002 29.51c0.143 0.001 0.312 0.001 0.481 0.001 2.272 0 4.528-0.069 6.765-0.206l-0.307 0.015c1.561-0.096 2.917-0.602 4.027-1.509 1.026-0.836 1.735-1.991 2.101-3.431 0.364-1.428 0.386-2.961 0.406-4.446 0.016-1.16 0.032-2.535 0.036-3.929-0.004-1.395-0.020-2.769-0.036-3.931-0.020-1.481-0.040-3.015-0.406-4.442-0.368-1.441-1.074-2.597-2.101-3.433-1.11-0.906-2.465-1.413-4.027-1.509-1.931-0.122-4.187-0.191-6.46-0.191-0.167 0-0.334 0-0.5 0.001l0.026-0c-0.144-0.001-0.314-0.001-0.485-0.001-2.27 0-4.523 0.069-6.758 0.206l0.307-0.015c-1.561 0.096-2.917 0.602-4.027 1.509-1.026 0.836-1.735 1.991-2.101 3.431-0.364 1.429-0.386 2.961-0.406 4.444-0.016 1.162-0.032 2.539-0.036 3.933 0.004 1.39 0.020 2.767 0.036 3.927 0.020 1.485 0.040 3.017 0.406 4.446 0.366 1.441 1.074 2.595 2.101 3.431 1.11 0.906 2.465 1.413 4.027 1.509 2.201 0.134 4.47 0.196 6.93 0.19zM15.942 23.82c-4.313-0.006-7.808-3.501-7.813-7.814v-0c0.005-4.315 3.502-7.811 7.816-7.815h0c4.313 0.006 7.808 3.501 7.813 7.814v0c-0.005 4.314-3.501 7.81-7.814 7.815h-0zM15.942 10.692c-2.932 0.006-5.307 2.382-5.312 5.313v0c0.005 2.934 2.382 5.31 5.316 5.314h0c2.932-0.006 5.307-2.382 5.312-5.313v-0c-0.005-2.933-2.381-5.309-5.313-5.314h-0zM24.635 5.69c-0.018-0.001-0.040-0.001-0.061-0.001-1.036 0-1.877 0.84-1.877 1.877s0.84 1.877 1.877 1.877c0.022 0 0.043-0 0.064-0.001l-0.003 0c1.010-0.034 1.815-0.861 1.815-1.876s-0.806-1.842-1.812-1.876l-0.003-0z"></path>
</symbol>
<symbol id="twitter" viewBox="0 0 32 32">
    <path d="M32.011 5.442c-1.097 0.551-2.371 0.958-3.714 1.152l-0.068 0.008c1.36-0.908 2.399-2.337 2.887-4.055-1.19 0.804-2.583 1.418-4.079 1.759l-0.083 0.016c-1.204-1.433-2.921-2.321-4.794-2.321-3.633 0-6.558 3.297-6.558 7.339 0 0.58 0.044 1.14 0.152 1.673-5.456-0.298-10.284-3.221-13.527-7.675-0.566 1.074-0.898 2.348-0.898 3.699 0 0.004 0 0.008 0 0.011v-0.001c0 2.541 1.17 4.792 2.915 6.096-1.103-0.038-2.122-0.37-2.99-0.919l0.024 0.014v0.080c0 3.567 2.275 6.528 5.258 7.211-0.534 0.162-1.116 0.24-1.721 0.24-0.42 0-0.844-0.026-1.242-0.124 0.85 2.905 3.263 5.042 6.132 5.11-2.233 1.953-5.068 3.129-8.137 3.129-0.538 0-1.054-0.028-1.571-0.1 2.907 2.095 6.352 3.291 10.068 3.291 12.076 0 18.679-11.184 18.679-20.875 0-0.324-0.010-0.638-0.024-0.948 1.308-1.060 2.403-2.321 3.254-3.745l0.036-0.064z"></path>
</symbol>
<symbol id="facebook" viewBox="0 0 32 32">
    <path d="M22.52 0.006l-3.617-0.006c-4.065 0-6.692 3.093-6.692 7.879v3.631h-3.639c-0.314 0-0.568 0.294-0.568 0.654v5.262c0 0.36 0.254 0.652 0.568 0.652h3.639v13.281c0 0.36 0.254 0.652 0.568 0.652h4.748c0.314 0 0.568-0.292 0.568-0.652v-13.281h4.253c0.314 0 0.568-0.292 0.568-0.652l0.002-5.262c0-0.174-0.060-0.34-0.166-0.462-0.097-0.116-0.241-0.19-0.402-0.192h-4.256v-3.079c0-1.481 0.308-2.231 1.987-2.231h2.439c0.314 0 0.568-0.294 0.568-0.654v-4.886c0-0.36-0.254-0.652-0.568-0.654z"></path>
</symbol>
<symbol id="icon-tel" viewBox="0 0 32 32">
<path d="M29.43 20.473c-0.010 0-0.022 0-0.034 0-2.027 0-3.978-0.324-5.804-0.924l0.131 0.037c-0.894-0.295-1.991-0.025-2.535 0.522l-3.599 2.649c-4.172-2.171-6.742-4.677-8.938-8.714l2.634-3.414c0.687-0.667 0.93-1.642 0.638-2.555-0.577-1.654-0.911-3.56-0.911-5.544 0-0.009 0-0.019 0-0.028v0.001c-0.002-1.378-1.157-2.503-2.57-2.503h-5.876c-1.415 0-2.567 1.122-2.567 2.503 0 15.818 13.201 28.689 29.43 28.689 1.415 0 2.567-1.125 2.567-2.503v-5.711c0-1.381-1.152-2.506-2.567-2.506z"></path>
</symbol>
<symbol id="icon-location" viewBox="0 0 23 32">
<path d="M11.733 0c6.47 0 11.733 5.131 11.733 11.439 0 2.496-0.811 4.866-2.34 6.857l-8.67 11.379c-0.021 0.028-0.055 0.038-0.079 0.064-0.163 0.178-0.396 0.29-0.656 0.29-0.289 0-0.546-0.138-0.708-0.352l-0.002-0.002c-2.5-3.243-7.076-9.31-8.834-11.597l-0.002-0.002-0.011-0.015c-1.353-1.825-2.165-4.121-2.165-6.607 0-0.005 0-0.011 0-0.016v0.001c0-6.308 5.263-11.439 11.733-11.439zM11.733 17.609c3.484 0 6.33-2.773 6.33-6.17s-2.846-6.172-6.33-6.172-6.33 2.773-6.33 6.172c0 3.394 2.846 6.17 6.33 6.17z"></path>
</symbol>
<symbol id="btn-close" viewBox="0 0 32 32">
<path d="M23.892 6.708l-7.887 7.887-7.887-7.887c-0.177-0.162-0.414-0.262-0.674-0.262-0.551 0-0.998 0.447-0.998 0.998 0 0.26 0.099 0.497 0.263 0.675l-0.001-0.001 7.883 7.887-7.885 7.885c-0.181 0.181-0.293 0.43-0.293 0.706 0 0.551 0.447 0.998 0.998 0.998 0.275 0 0.525-0.111 0.705-0.292v0l7.889-7.885 7.887 7.887c0.177 0.162 0.414 0.262 0.674 0.262 0.551 0 0.998-0.447 0.998-0.998 0-0.26-0.099-0.497-0.262-0.675l0.001 0.001-7.887-7.887 7.887-7.889c0.181-0.181 0.293-0.43 0.293-0.706 0-0.551-0.447-0.998-0.998-0.998-0.275 0-0.525 0.112-0.705 0.292v0 0.002z"></path>
</symbol>
</defs>
</svg>
